<?xml version="1.0" encoding="utf-8"?>
<!-- Generator: Adobe Illustrator 27.4.1, SVG Export Plug-In . SVG Version: 6.00 Build 0)  -->
<svg version="1.1" id="Layer_1" xmlns="http://www.w3.org/2000/svg" xmlns:xlink="http://www.w3.org/1999/xlink" x="0px" y="0px"
	 viewBox="0 0 160 72" style="enable-background:new 0 0 160 72;" xml:space="preserve">
<style type="text/css">
	.st0{fill-rule:evenodd;clip-rule:evenodd;fill:#F26925;}
	.st1{fill:#808184;}
	.st2{fill-rule:evenodd;clip-rule:evenodd;fill:#010101;}
	.st3{fill:#010101;}
	.st4{fill-rule:evenodd;clip-rule:evenodd;fill:#FFFFFF;}
</style>
<g>
	<polygon class="st0" points="39.3,25.3 158.4,25.3 146,46.2 39.3,46.2 	"/>
	<path class="st1" d="M89.8,64.1c-15.6,0-28.3-12.7-28.3-28.3c0-15.6,12.7-28.3,28.3-28.3c15.6,0,28.3,12.7,28.3,28.3
		C118.1,51.4,105.4,64.1,89.8,64.1 M89.8,7.6c-15.5,0-28.1,12.6-28.1,28.1c0,15.5,12.6,28.1,28.1,28.1c15.5,0,28.1-12.6,28.1-28.1
		C117.9,20.2,105.3,7.6,89.8,7.6"/>
	<path class="st1" d="M89.8,55.6c-11.1,0-20.1-9-20.1-20.1c0-11.1,9-20.1,20.1-20.1c11.1,0,20.1,9,20.1,20.1
		C109.9,46.6,100.9,55.6,89.8,55.6 M89.8,15.6c-11,0-19.9,8.9-19.9,19.9c0,11,8.9,19.9,19.9,19.9c11,0,19.9-8.9,19.9-19.9
		C109.7,24.5,100.8,15.6,89.8,15.6"/>
	<path class="st1" d="M89.5,49.8c-7.9,0-14.3-6.4-14.3-14.3c0-7.9,6.4-14.3,14.3-14.3c7.9,0,14.3,6.4,14.3,14.3
		C103.8,43.3,97.4,49.8,89.5,49.8 M89.5,21.6c-7.6,0-13.8,6.2-13.8,13.8c0,7.6,6.2,13.8,13.8,13.8c7.6,0,13.8-6.2,13.8-13.8
		C103.3,27.8,97.1,21.6,89.5,21.6"/>
	<path class="st1" d="M89.6,52.9c-9.6,0-17.4-7.8-17.4-17.4c0-9.6,7.8-17.4,17.4-17.4c9.6,0,17.4,7.8,17.4,17.4
		C107,45.1,99.2,52.9,89.6,52.9 M89.6,18.3c-9.5,0-17.2,7.7-17.2,17.2c0,9.5,7.7,17.2,17.2,17.2c9.5,0,17.2-7.7,17.2-17.2
		C106.7,26,99,18.3,89.6,18.3"/>
	<path class="st1" d="M89.8,59.2c-13.1,0-23.7-10.6-23.7-23.7c0-13.1,10.6-23.7,23.7-23.7c13.1,0,23.7,10.6,23.7,23.7
		C113.5,48.6,102.9,59.2,89.8,59.2 M89.8,12c-13,0-23.5,10.5-23.5,23.5c0,13,10.6,23.5,23.5,23.5c13,0,23.5-10.5,23.5-23.5
		C113.3,22.5,102.8,12,89.8,12"/>
	<path class="st1" d="M89.8,70.9c-19.4,0-35.1-15.8-35.1-35.1c0-19.4,15.8-35.1,35.1-35.1c19.4,0,35.1,15.8,35.1,35.1
		C124.9,55.1,109.2,70.9,89.8,70.9 M89.8,0.8c-19.3,0-34.9,15.7-34.9,34.9c0,19.3,15.7,34.9,34.9,34.9c19.3,0,34.9-15.7,34.9-34.9
		C124.7,16.5,109.1,0.8,89.8,0.8"/>
	<path class="st1" d="M77.4,35.4c0-6.7,5.4-12.1,12.1-12.1c6.7,0,12.1,5.4,12.1,12.1c0,6.7-5.4,12.1-12.1,12.1
		C82.8,47.6,77.4,42.1,77.4,35.4"/>
	<polygon class="st2" points="52.5,23.1 45.8,29.8 7.9,29.8 1.2,23.1 1.2,3.4 8.8,3.4 8.8,22.2 23.1,22.2 23.1,3.4 30.8,3.4 
		30.8,22.2 44.7,22.2 44.7,3.4 52.5,3.4 	"/>
	<polygon class="st2" points="75.3,29.8 57,29.8 57,29.8 54.3,27.2 54.3,16.8 75.3,16.8 75.3,19.5 56.9,19.5 56.9,21.8 75.3,21.8 
		75.3,24.4 56.9,24.4 56.9,27.3 75.3,27.3 	"/>
	<path class="st2" d="M103.1,26.4l-3.1,3.1H81.7h-0.1l-3.1-3.1V14.2h3v3H100l3.1,3.1V26.4z M100,20.3H81.6v6.1H100V20.3z"/>
	<rect x="78.5" y="4.7" class="st3" width="3.1" height="9.7"/>
	<path class="st4" d="M45,36.5l2-0.2c0.1,0.8,0.3,1.5,0.7,2c0.4,0.5,0.9,1,1.6,1.3c0.7,0.3,1.6,0.5,2.5,0.5c0.8,0,1.5-0.1,2.2-0.4
		c0.6-0.2,1.1-0.6,1.4-1c0.3-0.4,0.5-0.9,0.5-1.4c0-0.5-0.1-1-0.4-1.3c-0.3-0.4-0.8-0.7-1.5-1c-0.4-0.2-1.4-0.4-2.9-0.8
		c-1.5-0.4-2.5-0.7-3.1-1c-0.8-0.4-1.3-0.9-1.7-1.5c-0.4-0.6-0.6-1.3-0.6-2c0-0.8,0.2-1.6,0.7-2.3c0.5-0.7,1.1-1.2,2-1.6
		c0.9-0.4,1.9-0.6,3-0.6c1.2,0,2.3,0.2,3.2,0.6c0.9,0.4,1.6,1,2.1,1.7c0.5,0.8,0.8,1.6,0.8,2.6l-2.1,0.2c-0.1-1-0.5-1.8-1.1-2.3
		c-0.6-0.5-1.6-0.8-2.8-0.8c-1.3,0-2.2,0.2-2.8,0.7c-0.6,0.5-0.9,1-0.9,1.7c0,0.6,0.2,1.1,0.6,1.4c0.4,0.4,1.5,0.8,3.2,1.2
		c1.7,0.4,2.9,0.7,3.6,1c0.9,0.4,1.6,1,2.1,1.6c0.5,0.7,0.7,1.4,0.7,2.3c0,0.9-0.2,1.7-0.7,2.4c-0.5,0.8-1.2,1.4-2.1,1.8
		c-0.9,0.4-2,0.6-3.1,0.6c-1.5,0-2.7-0.2-3.7-0.6c-1-0.4-1.8-1.1-2.3-1.9C45.3,38.5,45,37.6,45,36.5"/>
	<path class="st4" d="M60.4,46.2l-0.2-1.8c0.4,0.1,0.8,0.2,1.1,0.2c0.4,0,0.8-0.1,1.1-0.2c0.3-0.1,0.5-0.4,0.7-0.6
		c0.1-0.2,0.3-0.7,0.6-1.5c0-0.1,0.1-0.3,0.2-0.5l-4.5-11.8h2.1l2.4,6.8c0.3,0.9,0.6,1.8,0.9,2.7c0.2-0.9,0.5-1.8,0.8-2.6l2.5-6.8h2
		l-4.4,11.9c-0.5,1.3-0.8,2.2-1.1,2.6c-0.4,0.7-0.8,1.1-1.2,1.4c-0.5,0.3-1,0.5-1.6,0.5C61.4,46.4,60.9,46.4,60.4,46.2"/>
	<path class="st4" d="M71.9,41.7V30h1.8v1.7c0.9-1.3,2.1-1.9,3.7-1.9c0.7,0,1.4,0.1,2,0.4c0.6,0.3,1,0.6,1.3,1
		c0.3,0.4,0.5,0.9,0.6,1.5c0.1,0.4,0.1,1,0.1,1.9v7.2h-2v-7.1c0-0.8-0.1-1.4-0.2-1.8c-0.2-0.4-0.4-0.7-0.8-1
		c-0.4-0.2-0.9-0.4-1.4-0.4c-0.8,0-1.6,0.3-2.2,0.8c-0.6,0.5-0.9,1.6-0.9,3.1v6.4H71.9z"/>
	<path class="st4" d="M92.5,37.9l2.1,0.3c-0.3,1.2-0.9,2.1-1.8,2.8c-0.9,0.7-2,1-3.3,1c-1.7,0-3.1-0.5-4.1-1.6
		c-1-1.1-1.5-2.5-1.5-4.4c0-2,0.5-3.5,1.5-4.6c1-1.1,2.3-1.6,3.9-1.6c1.6,0,2.8,0.5,3.8,1.6c1,1.1,1.5,2.6,1.5,4.5
		c0,0.1,0,0.3,0,0.5h-8.7c0.1,1.3,0.4,2.3,1.1,2.9c0.7,0.7,1.5,1,2.5,1c0.7,0,1.3-0.2,1.9-0.6C91.8,39.3,92.2,38.7,92.5,37.9
		 M86,34.7h6.5c-0.1-1-0.3-1.7-0.7-2.2c-0.6-0.8-1.5-1.2-2.5-1.2c-0.9,0-1.7,0.3-2.3,0.9C86.4,32.9,86,33.7,86,34.7"/>
	<path class="st4" d="M97,41.7V30h1.8v1.8c0.5-0.8,0.9-1.4,1.3-1.7c0.4-0.3,0.8-0.4,1.3-0.4c0.7,0,1.4,0.2,2,0.6l-0.7,1.8
		c-0.5-0.3-1-0.4-1.4-0.4c-0.4,0-0.8,0.1-1.2,0.4c-0.3,0.3-0.6,0.6-0.7,1.1c-0.2,0.7-0.3,1.5-0.3,2.3v6.1H97z"/>
	<path class="st4" d="M104.2,42.7l1.9,0.3c0.1,0.6,0.3,1,0.7,1.3c0.5,0.4,1.2,0.5,2,0.5c0.9,0,1.6-0.2,2.1-0.5
		c0.5-0.4,0.8-0.9,1-1.5c0.1-0.4,0.2-1.3,0.1-2.5c-0.9,1-1.9,1.5-3.2,1.5c-1.6,0-2.9-0.6-3.7-1.7c-0.9-1.2-1.3-2.6-1.3-4.2
		c0-1.1,0.2-2.1,0.6-3.1c0.4-0.9,1-1.7,1.8-2.2c0.8-0.5,1.7-0.8,2.7-0.8c1.4,0,2.5,0.6,3.4,1.7v-1.4h1.8v10.1c0,1.8-0.2,3.1-0.5,3.9
		c-0.4,0.8-1,1.4-1.8,1.8c-0.8,0.4-1.8,0.7-3,0.7c-1.4,0-2.5-0.3-3.4-0.9C104.6,44.9,104.2,43.9,104.2,42.7 M105.9,35.6
		c0,1.5,0.3,2.7,0.9,3.4c0.6,0.7,1.4,1.1,2.3,1.1c0.9,0,1.7-0.4,2.3-1.1c0.6-0.7,0.9-1.8,0.9-3.3c0-1.4-0.3-2.5-1-3.2
		c-0.6-0.7-1.4-1.1-2.3-1.1c-0.9,0-1.6,0.4-2.3,1.1C106.2,33.1,105.9,34.2,105.9,35.6"/>
	<path class="st4" d="M117.2,25.5h2v2.3h-2V25.5z M117.2,30h2v11.7h-2V30z"/>
	<path class="st4" d="M130.2,37.9l2.1,0.3c-0.3,1.2-0.9,2.1-1.8,2.8c-0.9,0.7-2,1-3.4,1c-1.7,0-3.1-0.5-4.1-1.6
		c-1-1.1-1.5-2.5-1.5-4.4c0-2,0.5-3.5,1.5-4.6c1-1.1,2.3-1.6,3.9-1.6c1.6,0,2.9,0.5,3.8,1.6c1,1.1,1.5,2.6,1.5,4.5
		c0,0.1,0,0.3,0,0.5h-8.7c0.1,1.3,0.4,2.3,1.1,2.9c0.7,0.7,1.5,1,2.4,1c0.7,0,1.3-0.2,1.9-0.6C129.5,39.3,129.9,38.7,130.2,37.9
		 M123.7,34.7h6.5c-0.1-1-0.3-1.7-0.8-2.2c-0.6-0.8-1.4-1.2-2.5-1.2c-0.9,0-1.7,0.3-2.3,0.9C124.1,32.9,123.8,33.7,123.7,34.7"/>
	<path class="st4" d="M134,38.2l2-0.3c0.1,0.8,0.4,1.4,0.9,1.8c0.5,0.4,1.2,0.6,2.1,0.6c0.9,0,1.6-0.2,2-0.6
		c0.4-0.4,0.7-0.8,0.7-1.3c0-0.4-0.2-0.8-0.6-1.1c-0.3-0.2-1-0.4-2-0.7c-1.4-0.4-2.5-0.7-3-1c-0.6-0.3-1-0.6-1.3-1.1
		c-0.3-0.5-0.4-1-0.4-1.6c0-0.5,0.1-1,0.4-1.4c0.2-0.4,0.6-0.8,1-1.1c0.3-0.2,0.7-0.4,1.3-0.6c0.5-0.2,1.1-0.2,1.7-0.2
		c0.9,0,1.7,0.1,2.4,0.4c0.7,0.3,1.2,0.6,1.5,1.1c0.3,0.5,0.6,1.1,0.7,1.8l-1.9,0.3c-0.1-0.6-0.3-1.1-0.8-1.4
		c-0.4-0.3-1-0.5-1.8-0.5c-0.9,0-1.6,0.2-2,0.5c-0.4,0.3-0.6,0.7-0.6,1.1c0,0.3,0.1,0.5,0.2,0.7c0.2,0.2,0.4,0.4,0.8,0.5
		c0.2,0.1,0.8,0.2,1.8,0.5c1.4,0.4,2.4,0.7,2.9,0.9c0.6,0.2,1,0.6,1.3,1c0.3,0.4,0.5,1,0.5,1.7c0,0.7-0.2,1.3-0.6,1.9
		c-0.4,0.6-0.9,1-1.7,1.4c-0.7,0.3-1.6,0.5-2.5,0.5c-1.5,0-2.7-0.3-3.5-0.9C134.8,40.4,134.2,39.4,134,38.2"/>
	<path class="st2" d="M158.5,22.1c-0.3,0.6-0.8,1-1.3,1.3c-0.6,0.3-1.2,0.5-1.8,0.5c-0.6,0-1.2-0.2-1.8-0.5c-0.6-0.3-1-0.8-1.3-1.3
		c-0.3-0.6-0.5-1.2-0.5-1.8c0-0.6,0.2-1.2,0.5-1.8c0.3-0.6,0.8-1,1.3-1.3c0.6-0.3,1.2-0.5,1.8-0.5c0.6,0,1.2,0.2,1.8,0.5
		c0.6,0.3,1,0.8,1.3,1.3c0.3,0.6,0.5,1.2,0.5,1.8C159,20.9,158.9,21.5,158.5,22.1 M158,18.8c-0.3-0.5-0.6-0.9-1.1-1.1
		c-0.5-0.3-1-0.4-1.5-0.4c-0.5,0-1,0.1-1.5,0.4c-0.5,0.3-0.9,0.6-1.1,1.1c-0.3,0.5-0.4,1-0.4,1.5c0,0.5,0.1,1,0.4,1.5
		c0.3,0.5,0.6,0.9,1.1,1.1c0.5,0.3,1,0.4,1.5,0.4c0.5,0,1-0.1,1.5-0.4c0.5-0.3,0.9-0.6,1.1-1.1c0.3-0.5,0.4-1,0.4-1.5
		C158.4,19.8,158.3,19.3,158,18.8 M156.6,21.2c0.1,0.6,0.2,0.9,0.3,1.1h-0.5c-0.1-0.1-0.2-0.5-0.3-1c-0.1-0.6-0.3-0.8-0.8-0.8h-0.5
		v1.7h-0.5v-4c0.3-0.1,0.6-0.1,1-0.1c0.6,0,0.9,0.1,1.2,0.3c0.2,0.2,0.3,0.5,0.3,0.8c0,0.5-0.3,0.9-0.8,1v0
		C156.3,20.5,156.5,20.8,156.6,21.2 M156.2,19.4c0-0.5-0.4-0.7-0.9-0.7c-0.3,0-0.4,0-0.5,0v1.5h0.5
		C155.9,20.2,156.2,19.9,156.2,19.4"/>
</g>
</svg>
